<svg width="1356" height="1356" viewBox="0 0 1356 1356" fill="none" xmlns="http://www.w3.org/2000/svg">
<rect width="1356" height="1356" fill="black"/>
<path d="M404.157 605.491C401.986 603.295 413.707 589.774 415.708 587.387C444.463 553.073 477.706 521.101 506.205 486.887C507.27 485.611 511.452 480.413 511.392 479.343L370.994 310.959C370.085 311.633 369.049 330.134 368.939 333.512C366.134 419.491 376.423 504.791 394.678 588.467L301.622 735.162L355.896 711.037L372.266 783.64C378.066 807.168 401.177 813.054 419.538 823.825C439.924 835.787 473.434 861.155 482.587 883.416C483.31 885.175 485.969 891.388 483.044 891.991C472.876 887.688 461.818 881.576 451.218 878.601C449.584 878.143 446.81 877.198 445.377 878.41C478.058 915.061 512.618 955.266 536.367 998.521C539.001 1003.32 554.612 1033.97 551.923 1036.74L548.345 1035.8C475.746 930.512 382.409 848.715 269.475 788.928C258.452 783.093 247.274 776.945 235.312 773.322L236.035 769.612L349.839 585.823L349.638 581.109C319.154 481.198 304.884 373.777 313.695 269.252C315.56 247.106 319.727 216.24 326.015 195.115C327.095 191.481 328.096 188.315 332.277 191.345C382.359 258.667 442.93 319.006 503.159 377.351C520.6 394.244 538.468 411.278 556.437 427.608C562.72 433.318 576.914 447.602 583.166 451.116C592.309 456.247 624.366 456.182 635.911 456.675C660.801 457.74 686.284 458.595 711.31 457.77C723.393 457.373 765.221 455.514 773.595 449.688C841.378 387.906 910.122 324.545 971.065 255.877C987.616 237.225 1005.94 216.039 1020.2 195.688C1021.19 194.286 1022.99 187.45 1025.95 190.22C1033.81 212.833 1038.07 238.32 1040.47 262.215C1051.37 370.907 1036.88 481.072 1004.31 584.838L1119.36 769.391C1119.9 770.396 1120.21 771.678 1119.84 772.759C1119.44 773.91 1100.2 780.484 1097.76 782.902C998.604 833.717 910.971 901.304 842.504 989.293C837.614 995.581 808.743 1037.62 804.752 1037.73C803.355 1037.77 803.596 1035.72 803.687 1034.71C804.34 1027.41 817.891 1002.5 822.173 994.857C845.63 952.964 878.16 914.267 909.795 878.415C903.789 875.686 873.043 893.443 871.606 891.986C871.978 884.607 876.723 877.465 880.819 871.554C893.163 853.736 914.073 836.938 932.614 825.841C955.8 811.963 974.045 811.013 983.123 781.856C990.185 759.168 993.18 734.283 1000.21 711.474C1001.48 710.544 1002.98 711.122 1004.32 711.504C1010.63 713.303 1022.31 720.752 1029.06 723.974C1037.38 727.94 1045.92 731.956 1054.56 735.162C1023.82 685.483 989.044 638.247 961.108 586.849C960.158 581.727 963.717 573.806 964.797 568.513C976.533 510.963 984.666 452.704 986.239 393.932C986.978 366.323 986.475 338.418 984.178 310.959L844.625 478.483C844.283 480.187 856.94 494.532 859.025 496.945C886.941 529.258 919.139 561.346 945.507 594.423C948.095 597.67 952.071 601.329 952.026 605.496H404.157V605.491Z" fill="white"/>
<path d="M553.436 821.619C611.363 816.708 630.412 747.095 657.675 704.704C658.685 703.13 661.766 698.104 662.796 697.27C666.993 693.872 693.883 692.178 696.502 700.668C719.412 731.87 736.913 792.029 770.764 811.37C805.224 831.058 856.864 817.316 895.269 821.568C903.07 822.433 895.927 825.891 893.233 827.675C862.463 848.036 821.856 868.533 812.759 907.029C803.083 947.958 798.273 991.394 789.698 1032.74C784.602 1057.33 781.113 1077.78 756.379 1089.9C740.235 1097.8 714.003 1099.63 697.688 1091.54C688.415 1086.94 685.711 1075.88 691.657 1067.4C703.649 1050.29 736.757 1041.1 740.678 1015.9C744.598 990.691 735.697 981.744 712.144 978.567C693.305 976.029 671.914 975.622 652.97 977.447C636.72 979.015 617.048 980.11 615.223 1000.01C613.645 1017.22 617.917 1027.74 630.332 1039.27C638.625 1046.98 662.691 1060.97 666.038 1069.91C671.718 1085.09 659.293 1092 646.652 1094.77C611.177 1102.57 580.13 1089.02 570.515 1052.84C558.407 1007.27 554.702 955.492 544.625 908.849C540.232 888.533 532.863 878.912 517.77 865.337C500.037 849.383 478.259 837.2 458.45 824.122L459.958 821.619H553.446H553.436Z" fill="white"/>
<path d="M631.694 1146.97C626.421 1142 620.088 1134.08 615.851 1128.13C614.484 1126.2 603.281 1108.94 604.206 1108.12C611.981 1108.26 619.425 1111.52 627.09 1112.87C660.303 1118.72 698.879 1118.56 732.098 1112.87C737.506 1111.94 744.92 1108.88 749.695 1108.32C751.469 1108.11 751.826 1108.08 752.952 1109.62C733.354 1143.53 706.409 1176.41 662.495 1164.92C651.251 1161.98 640.098 1154.9 631.694 1146.97V1146.97Z" fill="white"/>
</svg>
