<svg width="1761" height="1946" viewBox="0 0 1761 1946" fill="none" xmlns="http://www.w3.org/2000/svg">
<path d="M335.93 827.511C331.61 823.141 354.93 796.241 358.91 791.491C416.12 723.221 482.26 659.611 538.96 591.541C541.08 589.001 549.4 578.661 549.28 576.531L269.95 241.521C268.14 242.861 266.08 279.671 265.86 286.391C260.28 457.451 280.75 627.161 317.07 793.641L131.93 1085.5L239.91 1037.5L272.48 1181.95C284.02 1228.76 330 1240.47 366.53 1261.9C407.09 1285.7 473.76 1336.17 491.97 1380.46C493.41 1383.96 498.7 1396.32 492.88 1397.52C472.65 1388.96 450.65 1376.8 429.56 1370.88C426.31 1369.97 420.79 1368.09 417.94 1370.5C482.96 1443.42 551.72 1523.41 598.97 1609.47C604.21 1619.02 635.27 1679.99 629.92 1685.5L622.8 1683.64C478.36 1474.16 292.66 1311.42 67.97 1192.47C46.04 1180.86 23.8 1168.63 0 1161.42L1.44 1154.04L227.86 788.381L227.46 779.001C166.81 580.221 138.42 366.501 155.95 158.541C159.66 114.481 167.95 53.0711 180.46 11.0411C182.61 3.81106 184.6 -2.48894 192.92 3.54106C292.56 137.481 413.07 257.531 532.9 373.611C567.6 407.221 603.15 441.111 638.9 473.601C651.4 484.961 679.64 513.381 692.08 520.371C710.27 530.581 774.05 530.451 797.02 531.431C846.54 533.551 897.24 535.251 947.03 533.611C971.07 532.821 1054.29 529.121 1070.95 517.531C1205.81 394.611 1342.58 268.551 1463.83 131.931C1496.76 94.8211 1533.22 52.6711 1561.59 12.1811C1563.55 9.39106 1567.13 -4.20894 1573.03 1.30106C1588.67 46.2911 1597.15 97.0011 1601.92 144.541C1623.61 360.791 1594.77 579.971 1529.98 786.421L1758.88 1153.6C1759.95 1155.6 1760.56 1158.15 1759.82 1160.3C1759.03 1162.59 1720.76 1175.67 1715.9 1180.48C1518.62 1281.58 1344.27 1416.05 1208.05 1591.11C1198.32 1603.62 1140.88 1687.26 1132.94 1687.48C1130.16 1687.56 1130.64 1683.48 1130.82 1681.46C1132.12 1666.95 1159.08 1617.39 1167.6 1602.18C1214.27 1518.83 1278.99 1441.84 1341.93 1370.51C1329.98 1365.08 1268.81 1400.41 1265.95 1397.51C1266.69 1382.83 1276.13 1368.62 1284.28 1356.86C1308.84 1321.41 1350.44 1287.99 1387.33 1265.91C1433.46 1238.3 1469.76 1236.41 1487.82 1178.4C1501.87 1133.26 1507.83 1083.75 1521.81 1038.37C1524.35 1036.52 1527.33 1037.67 1529.99 1038.43C1542.55 1042.01 1565.78 1056.83 1579.22 1063.24C1595.76 1071.13 1612.75 1079.12 1629.94 1085.5C1568.79 986.661 1499.6 892.681 1444.02 790.421C1442.13 780.231 1449.21 764.471 1451.36 753.941C1474.71 639.441 1490.89 523.531 1494.02 406.601C1495.49 351.671 1494.49 296.151 1489.92 241.521L1212.27 574.821C1211.59 578.211 1236.77 606.751 1240.92 611.551C1296.46 675.841 1360.52 739.681 1412.98 805.491C1418.13 811.951 1426.04 819.231 1425.95 827.521H335.93V827.511Z" fill="white"/>
<path d="M632.93 1257.51C748.18 1247.74 786.08 1109.24 840.32 1024.9C842.33 1021.77 848.46 1011.77 850.51 1010.11C858.86 1003.35 912.36 999.981 917.57 1016.87C963.15 1078.95 997.97 1198.64 1065.32 1237.12C1133.88 1276.29 1236.62 1248.95 1313.03 1257.41C1328.55 1259.13 1314.34 1266.01 1308.98 1269.56C1247.76 1310.07 1166.97 1350.85 1148.87 1427.44C1129.62 1508.87 1120.05 1595.29 1102.99 1677.56C1092.85 1726.48 1085.91 1767.16 1036.7 1791.27C1004.58 1807 952.39 1810.63 919.93 1794.53C901.48 1785.38 896.1 1763.38 907.93 1746.5C931.79 1712.46 997.66 1694.18 1005.46 1644.04C1013.26 1593.89 995.55 1576.09 948.69 1569.77C911.21 1564.72 868.65 1563.91 830.96 1567.54C798.63 1570.66 759.49 1572.84 755.86 1612.44C752.72 1646.68 761.22 1667.61 785.92 1690.55C802.42 1705.88 850.3 1733.71 856.96 1751.51C868.26 1781.71 843.54 1795.45 818.39 1800.97C747.81 1816.48 686.04 1789.52 666.91 1717.55C642.82 1626.88 635.45 1523.86 615.4 1431.06C606.66 1390.64 592 1371.5 561.97 1344.49C526.69 1312.75 483.36 1288.51 443.95 1262.49L446.95 1257.51H632.95H632.93Z" fill="white"/>
<path d="M788.63 1904.82C778.14 1894.93 765.54 1879.18 757.11 1867.33C754.39 1863.5 732.1 1829.15 733.94 1827.52C749.41 1827.81 764.22 1834.29 779.47 1836.97C845.55 1848.61 922.3 1848.29 988.39 1836.97C999.15 1835.13 1013.9 1829.03 1023.4 1827.92C1026.93 1827.5 1027.64 1827.44 1029.88 1830.5C990.89 1897.98 937.28 1963.39 849.91 1940.53C827.54 1934.68 805.35 1920.59 788.63 1904.81V1904.82Z" fill="white"/>
</svg>
